<svg width="40" height="40" viewBox="0 0 40 40" fill="none" xmlns="http://www.w3.org/2000/svg">
<path d="M14.2623 22.5002H7.80398C6.94831 22.505 6.12933 22.8483 5.52598 23.4551C4.92263 24.0619 4.58397 24.8828 4.58398 25.7385V32.1968C4.58398 33.0508 4.92323 33.8698 5.5271 34.4737C6.13097 35.0776 6.94999 35.4168 7.80398 35.4168H14.2623C15.1179 35.4168 15.9386 35.0781 16.5451 34.4747C17.1516 33.8713 17.4946 33.0524 17.499 32.1968V25.7385C17.499 24.8801 17.158 24.0568 16.551 23.4498C15.944 22.8428 15.1207 22.5018 14.2623 22.5018M14.2623 4.5835H7.80398C7.38113 4.5835 6.96241 4.66678 6.57174 4.8286C6.18108 4.99042 5.82611 5.22761 5.5271 5.52661C5.2281 5.82562 4.99091 6.18059 4.82909 6.57126C4.66727 6.96192 4.58398 7.38064 4.58398 7.8035V14.2618C4.58397 15.1174 4.92269 15.9381 5.52608 16.5446C6.12947 17.1511 6.94846 17.4941 7.80398 17.4985H14.2623C15.1207 17.4985 15.944 17.1575 16.551 16.5505C17.158 15.9435 17.499 15.1202 17.499 14.2618V7.8035C17.4946 6.94797 17.1516 6.12899 16.5451 5.52559C15.9386 4.9222 15.1179 4.58348 14.2623 4.5835ZM32.1973 4.5835H25.739C24.8834 4.58348 24.0627 4.9222 23.4562 5.52559C22.8497 6.12899 22.5067 6.94797 22.5023 7.8035V14.2618C22.5028 15.1201 22.8439 15.9431 23.4508 16.55C24.0577 17.1569 24.8807 17.4981 25.739 17.4985H32.1973C33.0528 17.4941 33.8718 17.1511 34.4752 16.5446C35.0786 15.9381 35.4173 15.1174 35.4173 14.2618V7.8035C35.4173 6.9495 35.0781 6.13048 34.4742 5.52661C33.8703 4.92275 33.0513 4.5835 32.1973 4.5835Z" stroke="#8B24AC" stroke-width="3" stroke-linecap="round" stroke-linejoin="round"/>
<path d="M28.9476 23.0283V34.8883M23.0293 28.9717H34.8893" stroke="#8B24AC" stroke-width="3" stroke-miterlimit="10" stroke-linecap="round"/>
</svg>
